<svg xmlns="http://www.w3.org/2000/svg" viewBox="0 0 16 16" shape-rendering="crispEdges">
<rect x="0" y="0" width="16" height="16" fill="#1e1e1e" />
<rect x="3" y="3" width="1" height="1" fill="#d84cab" /><rect x="9" y="3" width="1" height="1" fill="#d84cab" /><rect x="10" y="3" width="1" height="1" fill="#d84cab" /><rect x="11" y="3" width="1" height="1" fill="#d84cab" /><rect x="12" y="3" width="1" height="1" fill="#d84cab" /><rect x="3" y="4" width="1" height="1" fill="#d24db1" /><rect x="9" y="4" width="1" height="1" fill="#d24db1" /><rect x="3" y="5" width="1" height="1" fill="#cb4eb8" /><rect x="9" y="5" width="1" height="1" fill="#cb4eb8" /><rect x="3" y="6" width="1" height="1" fill="#c550be" /><rect x="9" y="6" width="1" height="1" fill="#c550be" /><rect x="3" y="7" width="1" height="1" fill="#be51c4" /><rect x="9" y="7" width="1" height="1" fill="#be51c4" /><rect x="11" y="7" width="1" height="1" fill="#be51c4" /><rect x="12" y="7" width="1" height="1" fill="#be51c4" /><rect x="3" y="8" width="1" height="1" fill="#b852ca" /><rect x="9" y="8" width="1" height="1" fill="#b852ca" /><rect x="12" y="8" width="1" height="1" fill="#b852ca" /><rect x="3" y="9" width="1" height="1" fill="#b154d0" /><rect x="9" y="9" width="1" height="1" fill="#b154d0" /><rect x="12" y="9" width="1" height="1" fill="#b154d0" /><rect x="3" y="10" width="1" height="1" fill="#ab55d7" /><rect x="9" y="10" width="1" height="1" fill="#ab55d7" /><rect x="12" y="10" width="1" height="1" fill="#ab55d7" /><rect x="3" y="11" width="1" height="1" fill="#a456dd" /><rect x="9" y="11" width="1" height="1" fill="#a456dd" /><rect x="12" y="11" width="1" height="1" fill="#a456dd" /><rect x="3" y="12" width="1" height="1" fill="#9e58e3" /><rect x="4" y="12" width="1" height="1" fill="#9e58e3" /><rect x="5" y="12" width="1" height="1" fill="#9e58e3" /><rect x="6" y="12" width="1" height="1" fill="#9e58e3" /><rect x="9" y="12" width="1" height="1" fill="#9e58e3" /><rect x="10" y="12" width="1" height="1" fill="#9e58e3" /><rect x="11" y="12" width="1" height="1" fill="#9e58e3" /><rect x="12" y="12" width="1" height="1" fill="#9e58e3" />
</svg>